<svg xmlns="http://www.w3.org/2000/svg" width="20" height="20" viewBox="0 0 20 20">
  <defs>
    <style>
      .cls-1 {
        fill: #fff;
        fill-rule: evenodd;
      }
    </style>
  </defs>
  <path id="Фигура_11" data-name="Фигура 11" class="cls-1" d="M320.586,5626.99h-9.179a5.424,5.424,0,0,0-5.418,5.42v9.18a5.422,5.422,0,0,0,5.418,5.41h9.179a5.422,5.422,0,0,0,5.418-5.41v-9.18A5.424,5.424,0,0,0,320.586,5626.99Zm4.245,14.6a4.246,4.246,0,0,1-4.245,4.24h-9.179a4.246,4.246,0,0,1-4.245-4.24v-9.18a4.254,4.254,0,0,1,4.245-4.25h9.179a4.254,4.254,0,0,1,4.245,4.25v9.18ZM316,5631.52a5.475,5.475,0,1,0,5.473,5.48A5.483,5.483,0,0,0,316,5631.52Zm0,9.78a4.3,4.3,0,1,1,4.3-4.3A4.305,4.305,0,0,1,316,5641.3Zm5.6-11.72a1.615,1.615,0,1,0,1.618,1.62A1.622,1.622,0,0,0,321.6,5629.58Zm0,2.06a0.445,0.445,0,1,1,.444-0.44A0.444,0.444,0,0,1,321.6,5631.64Z" transform="translate(-306 -5627)"/>
</svg>
