<svg xmlns="http://www.w3.org/2000/svg" width="20" height="20" viewBox="0 0 20 20">
  <defs>
    <style>
      .cls-1 {
        fill: #fff;
        fill-rule: evenodd;
      }
    </style>
  </defs>
  <path id="Фигура_10" data-name="Фигура 10" class="cls-1" d="M275.467,5639.01a9.732,9.732,0,0,0,.211-2.01A9.674,9.674,0,0,0,264,5627.54a5.6,5.6,0,0,0-8,5.05,5.63,5.63,0,0,0,.544,2.41,9.674,9.674,0,0,0,11.468,11.47,5.711,5.711,0,0,0,2.408.54A5.594,5.594,0,0,0,275.467,5639.01Zm-5.051,6.83a4.339,4.339,0,0,1-2.058-.51,0.533,0.533,0,0,0-.274-0.07,0.612,0.612,0,0,0-.133.02A8.525,8.525,0,0,1,257.5,5637a8.442,8.442,0,0,1,.227-1.94,0.6,0.6,0,0,0-.052-0.41,4.357,4.357,0,0,1-.509-2.06,4.425,4.425,0,0,1,4.424-4.42,4.338,4.338,0,0,1,2.057.51,0.634,0.634,0,0,0,.407.05,8.5,8.5,0,0,1,10.223,10.22,0.6,0.6,0,0,0,.051.41,4.347,4.347,0,0,1,.509,2.05A4.434,4.434,0,0,1,270.416,5645.84ZM266,5632.47c1.73,0,3.192.9,3.192,1.97a0.587,0.587,0,1,0,1.173,0,2.783,2.783,0,0,0-1.364-2.29,5.721,5.721,0,0,0-6,0,2.613,2.613,0,0,0,0,4.59,5.378,5.378,0,0,0,3,.85c1.73,0,3.192.9,3.192,1.97s-1.462,1.98-3.192,1.98-3.191-.91-3.191-1.98a0.587,0.587,0,0,0-1.173,0,2.8,2.8,0,0,0,1.364,2.3,5.721,5.721,0,0,0,6,0,2.613,2.613,0,0,0,0-4.59,5.381,5.381,0,0,0-3-.85c-1.729,0-3.191-.91-3.191-1.98S264.274,5632.47,266,5632.47Z" transform="translate(-256 -5627)"/>
</svg>
